REM DIRINDEX 1\3,1\2\4,1\2\5,1\2\6
REM DIRNAME folder01,folder02,folder03,folder04,folder05,folder06
TITLE ""
FILE "035.mp3" MP3
  TRACK 01 AUDIO
    TITLE "0:"
    INDEX 01 00:00:00
  TRACK 02 AUDIO
    TITLE "4:cjc137_1431"
    INDEX 01 00:00:03
  TRACK 03 AUDIO
    TITLE "0:"
    INDEX 01 00:01:13
  TRACK 04 AUDIO
    TITLE "6:cjc137_1432"
    INDEX 01 00:01:28
  TRACK 05 AUDIO
    TITLE "0:"
    INDEX 01 00:02:34
  TRACK 06 AUDIO
    TITLE "5:cjc137_1433"
    INDEX 01 00:02:43
  TRACK 07 AUDIO
    TITLE "0:"
    INDEX 01 00:03:55
  TRACK 08 AUDIO
    TITLE "4:cjc137_1434"
    INDEX 01 00:04:68
  TRACK 09 AUDIO
    TITLE "0:"
    INDEX 01 00:06:14
  TRACK 10 AUDIO
    TITLE "6:cjc137_1435"
    INDEX 01 00:06:22
  TRACK 11 AUDIO
    TITLE "0:"
    INDEX 01 00:07:45
  TRACK 12 AUDIO
    TITLE "5:cjc137_1436"
    INDEX 01 00:07:54
  TRACK 13 AUDIO
    TITLE "0:"
    INDEX 01 00:09:00
  TRACK 14 AUDIO
    TITLE "4:cjc137_1437"
    INDEX 01 00:10:08
  TRACK 15 AUDIO
    TITLE "0:"
    INDEX 01 00:11:11
  TRACK 16 AUDIO
    TITLE "6:cjc137_1438"
    INDEX 01 00:11:21
  TRACK 17 AUDIO
    TITLE "0:"
    INDEX 01 00:12:14
  TRACK 18 AUDIO
    TITLE "5:cjc137_1439"
    INDEX 01 00:12:18
  TRACK 19 AUDIO
    TITLE "0:"
    INDEX 01 00:13:22
  TRACK 20 AUDIO
    TITLE "4:cjc137_1440"
    INDEX 01 00:14:31
  TRACK 21 AUDIO
    TITLE "0:"
    INDEX 01 00:15:54
  TRACK 22 AUDIO
    TITLE "6:cjc137_1441"
    INDEX 01 00:15:60
  TRACK 23 AUDIO
    TITLE "0:"
    INDEX 01 00:17:04
  TRACK 24 AUDIO
    TITLE "5:cjc137_1442"
    INDEX 01 00:17:12
  TRACK 25 AUDIO
    TITLE "0:"
    INDEX 01 00:18:33
  TRACK 26 AUDIO
    TITLE "4:cjc137_1443"
    INDEX 01 00:19:42
  TRACK 27 AUDIO
    TITLE "0:"
    INDEX 01 00:20:59
  TRACK 28 AUDIO
    TITLE "6:cjc137_1444"
    INDEX 01 00:20:65
  TRACK 29 AUDIO
    TITLE "0:"
    INDEX 01 00:22:23
  TRACK 30 AUDIO
    TITLE "5:cjc137_1445"
    INDEX 01 00:22:29
  TRACK 31 AUDIO
    TITLE "0:"
    INDEX 01 00:23:46
  TRACK 32 AUDIO
    TITLE "4:cjc137_1446"
    INDEX 01 00:24:53
  TRACK 33 AUDIO
    TITLE "0:"
    INDEX 01 00:26:11
  TRACK 34 AUDIO
    TITLE "6:cjc137_1447"
    INDEX 01 00:26:18
  TRACK 35 AUDIO
    TITLE "0:"
    INDEX 01 00:27:28
  TRACK 36 AUDIO
    TITLE "5:cjc137_1448"
    INDEX 01 00:27:38
  TRACK 37 AUDIO
    TITLE "0:"
    INDEX 01 00:28:72
  TRACK 38 AUDIO
    TITLE "4:cjc137_1449"
    INDEX 01 00:30:05
  TRACK 39 AUDIO
    TITLE "0:"
    INDEX 01 00:31:10
  TRACK 40 AUDIO
    TITLE "6:cjc137_1450"
    INDEX 01 00:31:18
  TRACK 41 AUDIO
    TITLE "0:"
    INDEX 01 00:32:13
  TRACK 42 AUDIO
    TITLE "5:cjc137_1451"
    INDEX 01 00:32:19
  TRACK 43 AUDIO
    TITLE "0:"
    INDEX 01 00:33:28
  TRACK 44 AUDIO
    TITLE "4:cjc137_1452"
    INDEX 01 00:34:36
  TRACK 45 AUDIO
    TITLE "0:"
    INDEX 01 00:35:35
  TRACK 46 AUDIO
    TITLE "6:cjc137_1453"
    INDEX 01 00:35:49
  TRACK 47 AUDIO
    TITLE "0:"
    INDEX 01 00:36:64
  TRACK 48 AUDIO
    TITLE "5:cjc137_1454"
    INDEX 01 00:36:74
  TRACK 49 AUDIO
    TITLE "0:"
    INDEX 01 00:37:73
  TRACK 50 AUDIO
    TITLE "4:cjc137_1455"
    INDEX 01 00:39:13
  TRACK 51 AUDIO
    TITLE "0:"
    INDEX 01 00:40:34
  TRACK 52 AUDIO
    TITLE "6:cjc137_1456"
    INDEX 01 00:40:44
  TRACK 53 AUDIO
    TITLE "0:"
    INDEX 01 00:41:42
  TRACK 54 AUDIO
    TITLE "5:cjc137_1457"
    INDEX 01 00:41:51
  TRACK 55 AUDIO
    TITLE "0:"
    INDEX 01 00:42:72
  TRACK 56 AUDIO
    TITLE "4:cjc137_1458"
    INDEX 01 00:44:05
  TRACK 57 AUDIO
    TITLE "0:"
    INDEX 01 00:45:14
  TRACK 58 AUDIO
    TITLE "6:cjc137_1459"
    INDEX 01 00:45:26
  TRACK 59 AUDIO
    TITLE "0:"
    INDEX 01 00:46:56
  TRACK 60 AUDIO
    TITLE "5:cjc137_1460"
    INDEX 01 00:46:64
  TRACK 61 AUDIO
    TITLE "0:"
    INDEX 01 00:47:72
  TRACK 62 AUDIO
    TITLE "4:cjc137_1461"
    INDEX 01 00:49:12
  TRACK 63 AUDIO
    TITLE "0:"
    INDEX 01 00:50:01
  TRACK 64 AUDIO
    TITLE "6:cjc137_1462"
    INDEX 01 00:50:11
  TRACK 65 AUDIO
    TITLE "0:"
    INDEX 01 00:50:72
  TRACK 66 AUDIO
    TITLE "5:cjc137_1463"
    INDEX 01 00:51:13
  TRACK 67 AUDIO
    TITLE "0:"
    INDEX 01 00:52:02
  TRACK 68 AUDIO
    TITLE "4:cjc137_1464"
    INDEX 01 00:53:11
  TRACK 69 AUDIO
    TITLE "0:"
    INDEX 01 00:54:17
  TRACK 70 AUDIO
    TITLE "6:cjc137_1465"
    INDEX 01 00:54:25
  TRACK 71 AUDIO
    TITLE "0:"
    INDEX 01 00:55:22
  TRACK 72 AUDIO
    TITLE "5:cjc137_1466"
    INDEX 01 00:55:28
  TRACK 73 AUDIO
    TITLE "0:"
    INDEX 01 00:56:33
  TRACK 74 AUDIO
    TITLE "4:cjc137_1467"
    INDEX 01 00:57:43
  TRACK 75 AUDIO
    TITLE "0:"
    INDEX 01 00:58:52
  TRACK 76 AUDIO
    TITLE "6:cjc137_1468"
    INDEX 01 00:58:64
  TRACK 77 AUDIO
    TITLE "0:"
    INDEX 01 01:00:29
  TRACK 78 AUDIO
    TITLE "5:cjc137_1469"
    INDEX 01 01:00:35
  TRACK 79 AUDIO
    TITLE "0:"
    INDEX 01 01:01:48
  TRACK 80 AUDIO
    TITLE "4:cjc137_1470"
    INDEX 01 01:02:55
  TRACK 81 AUDIO
    TITLE "0:"
    INDEX 01 01:03:59
  TRACK 82 AUDIO
    TITLE "6:cjc137_1471"
    INDEX 01 01:03:71
  TRACK 83 AUDIO
    TITLE "0:"
    INDEX 01 01:04:70
  TRACK 84 AUDIO
    TITLE "5:cjc137_1472"
    INDEX 01 01:05:07
  TRACK 85 AUDIO
    TITLE "0:"
    INDEX 01 01:06:10
